# xmcd
#
# Track frame offsets:
#	150
#	24266
#	43684
#	64542
#	88809
#	108934
#	128535
#	149645
#	176355
#	194045
#
# Disc length: 2863 seconds
#
# Revision: 3
# Processed by: cddbd v1.5.2PL0 Copyright (c) Steve Scherf et al.
# Submitted via: EZCDAudioConverter 8.0.2.1
#
DISCID=860b2d0a
DTITLE=Đan Trường, Cẩm Ly - Nếu Phôi Pha Ngày Mai
DYEAR=1999
DGENRE=Vietnamese
TTITLE0=Cẩm Ly, Đan Trường - Nếu Phôi Pha Ngày Mai
TTITLE1=Đan Trường - Tình đơn phương
TTITLE2=Cẩm Ly - Người về cuối phố
TTITLE3=Đan Trường - Phút đầu tiên
TTITLE4=Cẩm Ly - Xin được là tình cuối
TTITLE5=Đan Trường - Mãi là niềm đau
TTITLE6=Cẩm Ly - Mưa phố
TTITLE7=Cẩm Ly, Đan Trường - Ảo mộng tình yêu
TTITLE8=Cẩm Ly - Vu vơ
TTITLE9=Cẩm Ly, Đan Trường - Nụ hồng hờ hững
EXTD=
EXTT0=
EXTT1=
EXTT2=
EXTT3=
EXTT4=
EXTT5=
EXTT6=
EXTT7=
EXTT8=
EXTT9=
PLAYORDER=
